<svg width="388" height="388" viewBox="0 0 388 388" fill="none" xmlns="http://www.w3.org/2000/svg">
<g filter="url(#filter0_d_127_190)">
<path d="M310.531 123.114C306.375 121.757 302.812 120.4 298.656 119.044C299.25 115.652 299.844 112.938 300.437 109.547C309.344 59.3472 303.406 18.645 283.219 5.07764C263.625 -7.81138 231.562 5.75601 199.5 37.6394C196.531 41.0312 192.969 43.7447 190 47.1366C188.219 45.1015 185.844 43.0663 184.062 40.3529C150.219 5.75601 116.375 -8.48975 96.1875 5.07764C76.5938 17.9667 70.6563 55.9554 78.9688 104.12C79.5625 108.868 80.75 113.617 81.9375 118.365C77.1875 119.722 72.4375 121.757 68.2812 123.114C28.5 139.395 0 164.495 0 189.594C0 216.051 30.2812 242.507 71.25 258.788C74.8125 260.145 77.7812 261.501 81.3437 262.18C80.1562 267.607 78.9687 272.355 78.375 277.782C70.6562 324.59 76.5938 361.9 96.1875 374.789C116.375 388.357 150.219 374.789 182.875 341.549C185.25 338.836 188.219 336.122 190.594 333.409C193.562 336.8 197.125 340.192 200.687 343.584C232.156 374.789 263.625 387.678 283.219 374.789C303.406 361.222 309.938 321.198 301.031 272.355C300.438 268.963 299.844 264.893 298.656 260.823C301.031 260.145 303.406 259.466 305.781 258.11C349.125 243.185 380 216.729 380 189.594C380 164.495 350.906 139.395 310.531 123.114ZM210.188 51.2068C238.094 23.3936 263.625 13.2181 275.5 20.6801C287.969 28.8206 292.719 62.0607 285 106.155C284.406 108.868 283.813 111.582 283.219 114.974C266.594 110.903 249.969 107.511 233.344 106.155C223.844 90.5522 213.156 74.9497 201.875 61.3823C204.25 57.3121 207.219 54.5986 210.188 51.2068ZM124.094 233.688C127.656 241.15 131.812 248.612 135.969 255.396C124.094 254.039 112.813 252.004 101.531 249.291C104.5 237.08 108.656 224.191 113.406 211.302C116.969 219.442 120.531 226.905 124.094 233.688ZM101.531 131.933C112.219 129.219 123.5 127.184 135.375 125.149C131.219 131.933 127.656 139.395 124.094 146.857C120.531 154.319 116.969 161.103 113.406 169.243C108.656 156.354 105.094 144.143 101.531 131.933ZM121.719 190.273C126.469 178.74 131.813 167.208 137.75 155.676C143.688 144.143 149.625 133.29 155.563 122.436C166.844 121.757 178.125 121.079 189.406 121.079C200.687 121.079 212.562 121.757 223.25 122.436C229.781 133.29 235.719 144.143 241.062 154.997C246.406 165.851 252.344 177.384 257.094 189.594C252.344 201.126 247 212.659 241.062 224.191C235.125 235.723 229.187 246.577 223.25 257.431C211.969 258.11 200.687 258.788 188.812 258.788C176.937 258.788 165.656 258.11 154.969 257.431C148.438 246.577 142.5 235.723 136.562 224.191C130.625 212.659 127.062 201.805 121.719 190.273ZM255.906 233.688L266.594 211.302C271.344 223.513 275.5 236.402 279.062 248.612C267.781 251.326 255.906 254.039 244.031 255.396C248.187 248.612 252.344 241.15 255.906 233.688ZM266.594 168.565L255.906 146.179C252.344 138.716 248.188 131.933 244.625 125.149C256.5 127.184 267.781 129.219 278.469 131.933C275.5 144.822 271.344 157.032 266.594 168.565ZM190 73.593C197.719 83.0902 204.844 93.2657 211.969 104.12C197.125 103.441 182.281 103.441 168.031 104.12C175.156 92.5873 182.875 82.4118 190 73.593ZM103.906 21.3585C116.375 13.2181 144.281 24.7504 173.375 54.5986C175.156 56.6337 176.938 58.6689 179.313 60.704C168.031 74.9497 157.344 89.8739 147.25 105.476C130.625 107.511 114 110.225 97.375 114.295C96.1875 110.225 95.5938 105.476 95 101.406C87.875 60.0256 92.625 29.499 103.906 21.3585ZM86.0938 245.221C83.125 243.864 80.1562 243.185 76.5937 241.829C60.5625 236.402 42.75 226.905 29.6875 215.372C21.9688 209.267 17.2187 200.448 15.4375 190.273C15.4375 174.67 39.1875 154.997 73.0313 141.43C77.1875 139.395 81.3437 138.038 86.0938 136.681C91.4375 154.997 97.375 173.313 104.5 190.951C97.375 207.91 90.8438 226.226 86.0938 245.221ZM172.188 327.982C159.719 340.871 145.469 351.046 130.031 357.83C121.719 362.579 112.219 362.579 103.906 359.187C92.0312 351.046 87.2813 321.198 93.8125 281.174C94.4063 276.426 95.5937 271.677 96.7812 266.928C113.406 270.999 130.031 273.712 147.25 275.069C156.75 290.671 168.031 306.274 179.313 320.52C176.938 323.233 174.563 325.947 172.188 327.982ZM190.594 307.631C182.875 298.133 175.75 287.958 168.031 277.104C175.156 277.104 182.281 277.782 190 277.782C197.719 277.782 205.437 277.782 212.562 277.104C205.437 287.279 198.312 297.455 190.594 307.631ZM287.375 332.73C286.781 342.906 282.031 353.081 274.906 359.187C263.031 367.327 238.094 357.152 210.781 330.017C207.812 326.625 204.844 323.911 201.281 320.52C212.563 306.274 223.25 291.35 232.75 275.069C249.969 273.712 266.594 270.32 283.219 266.25L285 276.426C289.156 294.742 289.75 314.414 287.375 332.73ZM301.031 241.829C299.25 242.507 296.875 243.185 294.5 243.864C289.156 225.548 282.625 207.232 275.5 189.594C282.625 172.635 288.563 154.319 293.906 136.003C298.062 137.36 301.625 138.716 305.188 140.073C339.625 153.641 363.969 173.992 363.969 189.594C363.969 206.553 338.438 227.583 301.031 241.829ZM190 228.94C209 228.94 223.844 211.302 223.844 190.273C223.844 169.243 208.406 151.605 190 151.605C171.594 151.605 156.156 169.243 156.156 190.273C156.156 211.302 171 228.94 190 228.94Z" fill="url(#paint0_linear_127_190)"/>
</g>
<defs>
<filter id="filter0_d_127_190" x="0" y="0" width="388" height="388" filterUnits="userSpaceOnUse" color-interpolation-filters="sRGB">
<feFlood flood-opacity="0" result="BackgroundImageFix"/>
<feColorMatrix in="SourceAlpha" type="matrix" values="0 0 0 0 0 0 0 0 0 0 0 0 0 0 0 0 0 0 127 0" result="hardAlpha"/>
<feOffset dx="4" dy="4"/>
<feGaussianBlur stdDeviation="2"/>
<feComposite in2="hardAlpha" operator="out"/>
<feColorMatrix type="matrix" values="0 0 0 0 0.020625 0 0 0 0 0.17595 0 0 0 0 0.225 0 0 0 1 0"/>
<feBlend mode="normal" in2="BackgroundImageFix" result="effect1_dropShadow_127_190"/>
<feBlend mode="normal" in="SourceGraphic" in2="effect1_dropShadow_127_190" result="shape"/>
</filter>
<linearGradient id="paint0_linear_127_190" x1="20.6765" y1="11.2813" x2="293.92" y2="331.755" gradientUnits="userSpaceOnUse">
<stop offset="0.0223541" stop-color="#00F0FF"/>
<stop offset="0.661458" stop-color="#00ACFF"/>
<stop offset="1" stop-color="#006CA0" stop-opacity="0.61"/>
</linearGradient>
</defs>
</svg>
